PathFileType	4	(X/Y/Z)	C:\Users\Basilio\Documents\Thesis Gigler\squatting_fais\c3dfiles\044\SJ_pre4\markers_experimental.trc
DataRate	CameraRate	NumFrames	NumMarkers	Units	OrigDataRate	OrigDataStartFrame	OrigNumFrames
200.000000	200.000000	4	63	mm	200.000000	1068	1425
Frame#	Time	FHD			LBHD			RBHD			C7			T10			CLAV			LSHO			LUUPA			LMUPA			LDUPA			LLEP			LMEP			LRAD			LUL			LRFIN			RSHO			RUPA1			RMUPA			RDUPA			RLEP			RMEP			RRAD			RUL			RUFIN			LASI			RASI			USACR			LSACR			LTHI1			LTHI2			LTHI3			LTHI4			LLFC			LMFC			LTIB1			LTIB2			LTIB3			LTIB4			LLMAL			LMMAL			LHEE			LMT1			LMT2			LMT5			RTHI			RTHI2			RTHI3			RTHI4			RLFC			RMFC			RTIB1			RTIB2			RTIB3			RTIB4			RLMAL			RMMAL			RHEE			RMT1			RMT2			RMT5			RSACR			*61			*62			
		X1	Y1	Z1	X2	Y2	Z2	X3	Y3	Z3	X4	Y4	Z4	X5	Y5	Z5	X6	Y6	Z6	X7	Y7	Z7	X8	Y8	Z8	X9	Y9	Z9	X10	Y10	Z10	X11	Y11	Z11	X12	Y12	Z12	X13	Y13	Z13	X14	Y14	Z14	X15	Y15	Z15	X16	Y16	Z16	X17	Y17	Z17	X18	Y18	Z18	X19	Y19	Z19	X20	Y20	Z20	X21	Y21	Z21	X22	Y22	Z22	X23	Y23	Z23	X24	Y24	Z24	X25	Y25	Z25	X26	Y26	Z26	X27	Y27	Z27	X28	Y28	Z28	X29	Y29	Z29	X30	Y30	Z30	X31	Y31	Z31	X32	Y32	Z32	X33	Y33	Z33	X34	Y34	Z34	X35	Y35	Z35	X36	Y36	Z36	X37	Y37	Z37	X38	Y38	Z38	X39	Y39	Z39	X40	Y40	Z40	X41	Y41	Z41	X42	Y42	Z42	X43	Y43	Z43	X44	Y44	Z44	X45	Y45	Z45	X46	Y46	Z46	X47	Y47	Z47	X48	Y48	Z48	X49	Y49	Z49	X50	Y50	Z50	X51	Y51	Z51	X52	Y52	Z52	X53	Y53	Z53	X54	Y54	Z54	X55	Y55	Z55	X56	Y56	Z56	X57	Y57	Z57	X58	Y58	Z58	X59	Y59	Z59	X60	Y60	Z60	X61	Y61	Z61	X62	Y62	Z62	X63	Y63	Z63	

1069	5.34	-97.386833190918	1620.668579101563	-881.9829711914065	-226.5776367187501	1668.605712890625	-958.989685058594	-270.6847839355469	1682.2646484375	-800.256286621094	-385.0983276367189	1518.877685546875	-884.3643798828127	-475.0022888183595	1218.310424804688	-885.167419433594	-251.8720092773438	1441.358764648438	-885.3294067382815	-281.4009399414063	1486.908203125	-1064.997314453125	-380.8485107421876	1334.467529296875	-1218.36376953125	-360.5833435058594	1288.901245117188	-1207.271606445313	-404.8676757812501	1276.794677734375	-1249.124389648438	-417.6614990234376	1219.05078125	-1262.421997070313	-488.571990966797	1231.398315429688	-1218.161743164063	-445.7983703613282	984.0861816406252	-1107.681762695313	-410.3433532714845	959.9145507812502	-1161.635498046875	-390.2967224121095	977.2891235351565	-1070.423828125	-296.7005004882813	1469.575927734375	-691.6218261718751	-370.6647949218751	1297.357788085938	-556.5788574218751	-344.5511474609376	1255.174072265625	-569.7749633789064	-380.8058471679688	1233.391479492188	-528.4973144531251	-383.4538269042969	1171.017211914063	-519.1728515625001	-462.8261108398439	1174.50390625	-552.7473144531251	-423.6908569335939	935.3939208984377	-667.9562988281251	-370.4330139160157	916.696960449219	-620.8303833007814	-361.8598022460938	948.3895263671877	-712.9514160156251	-349.7080993652344	991.307800292969	-1003.372741699219	-335.3437194824219	968.4783325195315	-793.7609863281252	-495.1225585937501	1068.595458984375	-878.142517089844	-510.7060546875001	1037.884399414063	-903.8176269531252	-428.7359924316407	775.004821777344	-1105.145874023438	-379.4893188476563	708.4235229492189	-1124.265625	-332.8098754882813	719.9051513671876	-1119.652221679688	-391.077117919922	649.2214355468751	-1114.917236328125	-340.7618103027344	501.8930664062501	-1126.792114257813	-323.4255065917969	483.1958312988282	-1008.721557617188	-339.5782470703126	319.8254699707032	-1067.374389648438	-377.9855346679688	284.4346008300782	-1139.417114257813	-347.3778991699219	274.6139831542969	-1104.749145507813	-378.3521423339844	200.316635131836	-1078.717895507813	-452.7781372070314	96.54938507080081	-1131.976928710938	-430.4168701171876	99.02825164794925	-1046.177612304688	-513.1873168945314	48.78857421875001	-1083.519653320313	-295.8226623535157	60.02759933471681	-1074.69921875	-299.2093505859376	62.15892791748048	-1120.943115234375	-334.7052307128907	39.4179916381836	-1167.674072265625	-402.9010009765626	713.6469726562501	-689.5704956054689	-350.3007812500001	671.5474853515626	-679.2907104492189	-318.8809509277344	681.1765136718751	-682.6836547851564	-353.2962951660157	587.8222656250001	-694.6276855468751	-336.2968139648438	482.6397705078126	-696.3495483398439	-332.6760559082032	474.7322998046876	-815.923522949219	-315.2168579101563	348.5898437500001	-721.9301147460939	-403.0923767089845	297.2407226562501	-678.6904296875001	-363.7511901855469	279.9748229980469	-694.6718750000001	-366.8365173339844	228.5892944335938	-721.7012329101564	-472.1948547363282	95.66475677490236	-709.3078002929689	-444.4789428710939	98.90558624267581	-791.4808349609377	-525.2636718750001	49.68527221679689	-759.9669799804689	-312.4710083007813	61.08949279785158	-753.0147094726564	-310.4971618652344	59.78745651245119	-715.0621337890626	-352.1770935058594	40.07559204101563	-666.3370971679689	-502.7503051757814	1039.21142578125	-847.329528808594	nan	nan	nan	nan	nan	nan	
1070	5.345	-97.41969299316409	1620.537231445313	-882.2354125976565	-227.1991577148438	1668.824462890625	-959.247497558594	-271.1337585449219	1682.469848632813	-800.491149902344	-385.5166625976564	1518.9453125	-884.6292114257815	-475.1334533691407	1218.266967773438	-885.4748535156252	-252.2297821044922	1441.397094726563	-885.6655883789065	-281.8308410644532	1487.094848632813	-1065.175170898438	-381.0235595703126	1334.501708984375	-1218.595581054688	-360.8230590820313	1288.999389648438	-1207.55517578125	-405.5819702148439	1276.218627929688	-1248.76708984375	-417.921112060547	1219.023193359375	-1262.66162109375	-488.6918029785157	1231.314086914063	-1218.392944335938	-445.7777404785157	984.0151367187502	-1107.937377929688	-410.1861267089845	959.9613037109377	-1161.888061523438	-390.2470703125001	977.2922363281252	-1070.6328125	-296.9820251464844	1469.609130859375	-691.8557739257814	-370.8589172363282	1297.424682617188	-556.8623657226564	-344.7719726562501	1255.058227539063	-569.8190917968751	-381.0172119140626	1233.415161132813	-528.7095947265626	-383.5614624023438	1170.936157226563	-519.3434448242189	-462.9423828125001	1174.566772460938	-553.0103759765626	-423.797576904297	935.3464965820315	-668.1437377929689	-370.5091552734376	916.6577148437502	-621.0031738281251	-361.9079589843751	948.3829345703127	-713.0941162109376	-349.7335815429688	991.3681640625002	-1003.55517578125	-335.3764953613282	968.5140380859377	-793.9191894531252	-495.2357788085939	1068.597290039063	-878.3773193359377	-510.7175598144532	1037.863159179688	-904.0965576171877	-428.6789550781251	774.9896240234377	-1105.396606445313	-379.3692321777344	708.4487915039064	-1124.45166015625	-332.7156066894532	719.8871459960939	-1119.815795898438	-390.9168395996095	649.1609497070314	-1115.019897460938	-340.6816101074219	501.8370666503907	-1126.8408203125	-323.4571838378907	483.1717834472657	-1008.745788574219	-339.5824279785157	319.7365112304688	-1067.405151367188	-377.9098815917969	284.3061218261719	-1139.5	-347.3698730468751	274.6170654296876	-1104.808471679688	-378.3798828125001	200.3425903320313	-1078.752197265625	-452.7619018554689	96.52117919921878	-1132.009399414063	-430.4205627441407	98.98569488525393	-1046.143920898438	-513.1773681640626	48.84610748291017	-1083.534301757813	-295.8431091308594	60.00903320312501	-1074.691162109375	-299.2960205078126	61.58831787109376	-1121.27001953125	-334.3340148925782	39.15892791748048	-1167.691162109375	-402.955291748047	713.5715942382814	-689.7213134765626	-350.3173828125001	671.5664672851564	-679.3705444335939	-318.9152832031251	681.1951293945314	-682.8743896484376	-353.3547058105469	587.8646850585939	-694.7324829101564	-336.3326416015626	482.6353759765626	-696.4431152343751	-332.6818847656251	474.7449340820314	-816.0723266601565	-315.2545166015626	348.6080627441407	-721.9762573242189	-403.0974426269532	297.2472534179688	-678.7488403320314	-363.8018188476563	280.0660400390626	-694.7660522460939	-366.8389892578126	228.6133728027344	-721.7836914062501	-472.1661071777345	95.70706939697267	-709.3296508789064	-444.5044555664064	98.92237091064456	-791.5177001953127	-525.3010253906251	49.69765853881837	-759.9340209960939	-312.5673828125001	61.12915802001955	-753.0576171875001	-310.5761413574219	59.83050537109376	-715.1213378906251	-352.1505737304688	40.10516357421876	-666.3188476562501	-502.6932678222657	1039.343872070313	-847.5219726562502	nan	nan	nan	nan	nan	nan	
1071	5.350000000000001	-97.71203613281253	1620.890869140625	-882.5666503906252	-227.5617828369141	1668.95947265625	-959.5714111328127	-271.6322631835938	1682.611083984375	-800.6992187500002	-385.8499145507814	1518.89501953125	-884.9023437500002	-475.1992492675782	1218.21875	-885.7384033203127	-252.3772430419922	1441.66259765625	-885.921081542969	-282.2100219726563	1487.313354492188	-1065.460571289063	-381.2760314941407	1334.602905273438	-1218.827026367188	-361.1154785156251	1289.074096679688	-1207.820678710938	-405.915985107422	1276.269409179688	-1249.0166015625	-418.1743164062501	1219.033203125	-1262.848510742188	-488.8117980957032	1231.164672851563	-1218.612915039063	-445.7676391601564	984.060729980469	-1108.187744140625	-410.1093139648439	959.9479980468752	-1162.1884765625	-390.2592163085939	977.3283691406252	-1070.803588867188	-297.3885192871094	1469.649291992188	-692.1162719726564	-371.1236572265626	1297.553100585938	-557.1730346679689	-345.0017395019532	1255.25927734375	-570.4605102539064	-381.2523498535157	1233.41748046875	-528.9971313476564	-383.7579345703126	1171.0322265625	-519.5562133789064	-463.1225891113282	1174.412841796875	-553.2795410156251	-423.8025817871095	935.3865356445315	-668.4404907226564	-370.5917663574219	916.5668945312502	-621.1564941406251	-361.9230651855469	948.4219360351565	-713.3451538085939	-349.7615356445313	991.3172607421877	-1003.745056152344	-335.3856201171876	968.5559082031252	-794.0819091796877	-495.2801208496095	1068.526611328125	-878.6335449218752	-510.7056884765626	1037.801025390625	-904.3803710937502	-428.4845581054689	774.8613281250002	-1105.6171875	-379.2257690429688	708.3948364257814	-1124.594848632813	-332.6561584472657	719.8507080078126	-1119.896362304688	-390.832489013672	649.0532226562501	-1115.19140625	-340.6649475097657	501.7965698242189	-1126.866821289063	-323.3962097167969	483.1033020019532	-1008.819458007813	-339.6249084472657	319.7610473632813	-1067.426879882813	-377.8392944335938	284.3747558593751	-1139.494995117188	-347.4359436035157	274.6240539550782	-1104.823608398438	-378.4079895019532	200.3237915039063	-1078.777221679688	-452.7685546875001	96.52610015869143	-1132	-430.4743957519532	99.05764007568362	-1046.243408203125	-513.1628417968751	48.7729835510254	-1083.551635742188	-296.0841064453126	60.38019180297853	-1074.544799804688	-299.2268676757813	62.00099563598634	-1120.939453125	-334.3721008300782	39.19262695312501	-1167.697998046875	-403.0532531738282	713.5893554687501	-689.8778686523439	-350.3699340820313	671.6322021484376	-679.5919799804689	-318.9842529296876	681.2882080078126	-682.9641113281251	-353.3972167968751	587.8824462890626	-694.9080200195314	-336.3742370605469	482.6336975097657	-696.5263061523439	-332.6222839355469	474.7405395507814	-816.194519042969	-315.2671203613282	348.6292724609376	-722.0850830078126	-403.0281677246095	297.2527465820313	-678.7827758789064	-363.8228454589844	280.0598754882813	-694.7919311523439	-366.8268127441407	228.5843811035157	-721.8239135742189	-472.1993713378907	95.67751312255861	-709.3486328125001	-444.5108642578126	98.91773986816409	-791.5258789062502	-525.6893920898439	50.25074386596681	-759.9343261718751	-314.4157409667969	61.52410125732423	-752.9424438476564	-310.6654357910157	60.21131134033205	-715.0786743164064	-352.1303405761719	40.14290618896485	-666.2966308593751	-502.847137451172	1039.582397460938	-847.9087524414065	nan	nan	nan	nan	nan	nan	
1072	5.355	-98.049674987793	1620.939086914063	-882.9440917968752	-227.8646087646485	1669.040405273438	-959.8393554687502	-272.1149291992188	1682.8037109375	-801.0692138671877	-386.1226806640626	1518.897216796875	-885.2261352539065	-475.2757873535157	1218.241088867188	-886.004333496094	-252.733871459961	1441.8125	-886.1889648437502	-282.7308349609376	1487.4404296875	-1065.614135742188	-381.6557922363282	1334.619750976563	-1219.055297851563	-361.0770263671876	1289.406860351563	-1208.4765625	-405.0858764648439	1276.2783203125	-1249.906494140625	-418.2803955078126	1219.079223632813	-1263.087280273438	-489.0833740234376	1230.953857421875	-1218.750244140625	-445.7667846679689	984.072692871094	-1108.403442382813	-410.0225524902345	960.0158691406252	-1162.417236328125	-390.2462463378907	977.2709960937502	-1071.054565429688	-297.7958068847657	1469.638916015625	-692.1751708984376	-371.2457580566407	1297.591186523438	-557.3898315429689	-345.1997375488282	1255.472900390625	-570.9254760742189	-381.4063110351563	1233.34375	-529.2505493164064	-383.8896789550782	1170.980834960938	-519.9329833984376	-463.3064575195314	1174.400024414063	-553.5747680664064	-423.9142150878907	935.4523925781252	-668.7893676757814	-370.6180114746094	916.6063232421877	-621.4160766601564	-362.0082702636719	948.3413696289065	-713.5157470703126	-349.6773986816407	991.435974121094	-1003.98095703125	-335.4659423828126	968.5450439453127	-794.220397949219	-495.3095703125001	1068.515258789063	-878.8646240234377	-510.7464294433595	1037.783813476563	-904.7000122070315	-428.2955322265626	774.8115234375002	-1105.783081054688	-379.1499023437501	708.4273071289064	-1124.706787109375	-332.6040039062501	719.6892089843751	-1120.000244140625	-390.7205200195314	649.0721435546876	-1115.278930664063	-340.5826110839844	501.7454223632814	-1126.956176757813	-323.4117736816407	483.1641540527345	-1008.913635253906	-339.5977783203126	319.7351684570313	-1067.460815429688	-377.7464599609376	284.3178100585938	-1139.546630859375	-347.4465332031251	274.6277160644532	-1104.849487304688	-378.3713684082032	200.2634887695313	-1078.839111328125	-452.7493286132814	96.52976226806643	-1131.991088867188	-430.4588317871095	98.99645996093753	-1046.251708984375	-513.1635131835939	48.81821441650392	-1083.560546875	-295.8761901855469	60.00231170654298	-1074.665161132813	-299.2279357910157	62.09664916992189	-1120.972412109375	-334.3820495605469	39.1980323791504	-1167.68896484375	-403.0988159179689	713.5710449218751	-690.0410766601564	-350.4259033203126	671.5872802734376	-679.7392578125001	-319.0345153808594	681.2561645507814	-683.1257324218751	-353.4975585937501	587.9021606445314	-695.0344238281251	-336.4312133789063	482.7113342285157	-696.6673583984376	-332.7297668457032	474.7070922851564	-816.3091430664065	-315.2814636230469	348.6557617187501	-722.1078491210939	-403.0530090332032	297.2463989257813	-678.8525390625001	-363.8554077148438	280.1662597656251	-694.9590454101564	-366.8305969238282	228.5778808593751	-721.9456787109376	-472.2041015625001	95.68724060058595	-709.3488159179689	-444.5100402832032	98.90197753906253	-791.4988403320315	-525.6598510742189	50.19994735717775	-759.9908447265626	-312.5682067871094	61.06885528564455	-753.0537719726564	-310.5117797851563	59.76966094970705	-715.0509643554689	-352.1431579589844	40.0798568725586	-666.3505249023439	-502.9441528320314	1039.548095703125	-848.2490234375002	nan	nan	nan	nan	nan	nan	
